<svg fill="none" xmlns="http://www.w3.org/2000/svg" viewBox="0 0 126 136"><path fill-rule="evenodd" clip-rule="evenodd" d="m44.15 1.151 68.372 18.32c9.44 2.53 15.042 12.233 12.513 21.673l-21.755 81.192c-2.53 9.44-12.233 15.042-21.673 12.513l-68.372-18.321C3.795 113.999-1.807 104.296.723 94.855l21.755-81.19C25.008 4.225 34.71-1.378 44.15 1.151Zm-2.29 8.547a8.848 8.848 0 0 0-10.836 6.256L9.269 97.146a8.85 8.85 0 0 0 6.256 10.836l68.372 18.32a8.836 8.836 0 0 0 6.714-.884 8.845 8.845 0 0 0 4.122-5.372l21.755-81.192a8.836 8.836 0 0 0-.884-6.714 8.845 8.845 0 0 0-5.372-4.122L41.86 9.698Z" fill="currentColor"/><path d="M40.409 32.21a4.425 4.425 0 0 1 5.418-3.129l51.279 13.74a4.424 4.424 0 1 1-2.29 8.547l-51.279-13.74a4.426 4.426 0 0 1-3.128-5.418Zm-5.725 21.365a4.424 4.424 0 0 1 5.418-3.128l51.279 13.74a4.424 4.424 0 1 1-2.29 8.547l-51.279-13.74a4.426 4.426 0 0 1-3.128-5.419Zm-5.725 21.366a4.424 4.424 0 0 1 5.418-3.128l29.913 8.015A4.424 4.424 0 1 1 62 88.375L32.087 80.36a4.425 4.425 0 0 1-3.128-5.419Z" fill="currentColor"/></svg>