<svg width="895" height="927" viewBox="0 0 895 927" fill="none" xmlns="http://www.w3.org/2000/svg">
<g clip-path="url(#clip0)">
<g clip-path="url(#clip1)">
<rect x="5" y="40" width="882" height="882" rx="441" fill="url(#paint0_linear)"/>
<path d="M509.252 538.262C520.2 514.006 507.965 469.571 485.545 461.128C485.545 461.128 477.515 456.999 449.77 454.561C422.023 452.124 425.774 456.987 395.043 455.684C373.544 454.192 350.066 458.598 338.387 464.849C326.707 471.101 320.356 504.775 325.507 519.801C333.664 538.906 349.333 565.738 364.574 571.962C379.814 578.187 393.07 583.656 399.081 567.773C403.804 563.264 416.987 553.821 434.589 567.773C447.254 580.438 458.594 582.051 477.913 573.68C497.231 565.308 505.155 546.332 509.252 538.262ZM302.367 485.05C313.727 489.325 318.878 479.276 321 472.792C323.12 466.307 333.45 448.214 333.45 448.214C333.45 448.214 334.332 441.884 350.053 438.984C371.864 434.673 394.617 444.835 408.445 443.908C422.274 442.979 431.793 436.022 454 435.245C476.204 434.467 493.099 445.209 493.099 445.209C493.099 445.209 491.976 446.959 506.944 470.162C526.65 504.54 541.414 489.167 560.589 466.23C597.402 423.932 603.433 341.041 603.343 305.295C603.255 269.549 575.904 254.973 574.478 248.239C573.051 241.506 575.415 231.152 580.085 207.546C584.753 183.942 583.182 170.125 577.479 158.971C564.693 147.96 540.636 168.42 539.789 174.235C539.022 183.913 533.517 198.195 530.948 198.57C528.379 198.945 512.913 182.837 498.079 181.853C483.245 180.87 475.329 187.471 469.705 195.96C464.082 204.45 453.769 219.797 428.225 214.845C402.682 209.895 398.85 195.802 393.16 185.291C390.936 202.407 373.046 209.536 364.999 209.701C356.95 209.866 359.624 198.862 352.389 191.603C345.155 184.343 338.422 185.769 324.513 182.834C310.605 179.899 308.322 168.029 305.202 162.512C302.085 156.993 294.91 163.152 292.415 167.068C289.918 170.984 282.845 223.945 282.845 223.945L265.913 319.619C255.466 276.034 257.917 201.912 264.432 174.082C270.947 146.252 276.551 136.798 289.3 114.637C302.049 92.4765 299.126 91.2482 304.9 74.3835C310.673 57.5188 329.796 47.7868 350.666 29.0015C371.537 10.2173 402.494 12.1595 435.939 9.86302C469.386 7.56781 495.381 3.17032 533.349 17.2064C571.317 31.2424 600.147 55.1277 612.625 66.7878C625.102 78.4467 632.698 87.6313 639.026 113.587C645.355 139.543 653.508 144.53 657.828 182.443C662.148 220.357 655.786 271.371 645.732 315.053C627.417 332.82 618.261 357.483 611.011 380.82C603.759 404.156 605.261 445.992 598.169 477.054C591.076 508.117 581.382 537.944 539.123 581.643C496.863 625.342 455.234 652.604 395.751 641.585C336.267 630.566 323.13 586.715 293.885 542.548C264.639 498.383 264.373 446.227 266.583 412.688C272.547 452.178 291.007 480.773 302.367 485.05Z" fill="#00ECBC"/>
<path d="M659.937 229.004C661.186 216.628 663.085 204.094 660.019 183.078C655.523 152.252 646.237 139.131 643.308 122.015C640.383 104.899 634.353 83.1226 616.027 68.8987C597.701 54.6747 594.555 47.8686 571.516 34.1705" stroke="#1A202C" stroke-width="6" stroke-miterlimit="10" stroke-linecap="round" stroke-linejoin="round"/>
<path d="M649.388 313.833C649.388 313.833 660.035 267.669 659.184 247.075" stroke="#1A202C" stroke-width="6" stroke-miterlimit="10" stroke-linecap="round" stroke-linejoin="round"/>
<path d="M552.883 25.9652C552.883 25.9652 523.292 6.81915 482.945 7.64643C442.599 8.47246 428.933 12.1889 404.039 12.6984C379.144 13.2092 359.182 23.9235 350.344 32.6932C341.506 41.4629 313.477 56.6365 308.241 73.4911" stroke="#1A202C" stroke-width="6" stroke-miterlimit="10" stroke-linecap="round" stroke-linejoin="round"/>
<path d="M303.406 89.0478C303.406 89.0478 298.984 103.738 291.503 115.914C284.025 128.09 268.285 156.325 262.474 207.972" stroke="#1A202C" stroke-width="6" stroke-miterlimit="10" stroke-linecap="round" stroke-linejoin="round"/>
<path d="M605.467 454.502C605.467 454.502 630.629 467.084 645.484 437.579C660.337 408.076 669.514 373.966 670.344 351.619C671.175 329.274 658.384 312.788 645.63 319.062C632.877 325.335 616.535 366.033 610.03 404.814C603.526 443.594 607.275 499.918 566.275 552.717C525.277 605.514 476.722 646.723 418.286 644.915C359.849 643.106 335.589 606.46 319.619 581.453C303.647 556.446 275.203 514.734 269.558 469.761C263.912 424.789 270.375 388.975 266.98 343.999C260.965 281.001 261.599 228.171 261.599 228.171" stroke="#1A202C" stroke-width="6" stroke-miterlimit="10" stroke-linecap="round" stroke-linejoin="round"/>
<path d="M264.698 316.481C264.698 316.481 255.125 310.32 250.462 318.468C245.798 326.614 248.665 356.506 247.812 377.779C246.961 399.052 249.767 410.266 251.897 419.884C254.026 429.503 254.737 455.6 268.189 456.277" stroke="#1A202C" stroke-width="6" stroke-miterlimit="10" stroke-linecap="round" stroke-linejoin="round"/>
<path d="M451.492 133.354C451.492 133.354 439.514 193.178 465.419 200.055" stroke="#1A202C" stroke-width="6" stroke-miterlimit="10" stroke-linecap="round" stroke-linejoin="round"/>
<path d="M423.023 111.394C423.023 111.394 414.538 153.112 419.481 174.266" stroke="#1A202C" stroke-width="6" stroke-miterlimit="10" stroke-linecap="round" stroke-linejoin="round"/>
<path d="M424.621 189.297C424.621 189.297 431.202 212.028 449.761 213.902" stroke="#1A202C" stroke-width="6" stroke-miterlimit="10" stroke-linecap="round" stroke-linejoin="round"/>
<path d="M392.108 127.164C392.108 127.164 385.834 182.47 408.196 204.985" stroke="#1A202C" stroke-width="6" stroke-miterlimit="10" stroke-linecap="round" stroke-linejoin="round"/>
<path d="M396.208 183.19C396.208 183.19 390.611 211.25 367.077 210.122" stroke="#1A202C" stroke-width="6" stroke-miterlimit="10" stroke-linecap="round" stroke-linejoin="round"/>
<path d="M367.819 146.77C367.819 146.77 372.324 183.284 356.375 190.697" stroke="#1A202C" stroke-width="6" stroke-miterlimit="10" stroke-linecap="round" stroke-linejoin="round"/>
<path d="M364.987 108.075C364.987 108.075 340.248 142.397 340.416 182.007" stroke="#1A202C" stroke-width="6" stroke-miterlimit="10" stroke-linecap="round" stroke-linejoin="round"/>
<path d="M459.367 109.038C459.367 109.038 483.967 146.536 481.514 183.944" stroke="#1A202C" stroke-width="6" stroke-miterlimit="10" stroke-linecap="round" stroke-linejoin="round"/>
<path d="M476.242 83.8947C476.242 83.8947 494.107 107.018 500.457 133.95" stroke="#1A202C" stroke-width="6" stroke-miterlimit="10" stroke-linecap="round" stroke-linejoin="round"/>
<path d="M504.307 149.018C504.307 149.018 508.905 169.038 507.215 180.915" stroke="#1A202C" stroke-width="6" stroke-miterlimit="10" stroke-linecap="round" stroke-linejoin="round"/>
<path d="M525.203 126.845C536.359 146.013 549.809 173.693 535.563 197.007" stroke="#1A202C" stroke-width="6" stroke-miterlimit="10" stroke-linecap="round" stroke-linejoin="round"/>
<path d="M501.213 76.6196C501.213 76.6196 507.758 97.419 517.765 114.282" stroke="#1A202C" stroke-width="6" stroke-miterlimit="10" stroke-linecap="round" stroke-linejoin="round"/>
<path d="M531.473 75.9999C531.473 75.9999 559.43 120.191 560.642 147.864" stroke="#1A202C" stroke-width="6" stroke-miterlimit="10" stroke-linecap="round" stroke-linejoin="round"/>
<path d="M336.491 116.227C336.491 116.227 311.452 135.903 308.194 149.818" stroke="#1A202C" stroke-width="6" stroke-miterlimit="10" stroke-linecap="round" stroke-linejoin="round"/>
<path d="M308.498 164.625C308.498 164.625 309.746 178.448 321.1 182.402" stroke="#1A202C" stroke-width="6" stroke-miterlimit="10" stroke-linecap="round" stroke-linejoin="round"/>
<path d="M295.711 169.272C295.711 169.272 288.542 191.335 284.563 227.701C280.586 264.066 268.963 317.846 267.245 347.792" stroke="#1A202C" stroke-width="6" stroke-miterlimit="10" stroke-linecap="round" stroke-linejoin="round"/>
<path d="M580.556 160.981C580.556 160.981 588.694 180.923 586.033 192.5C583.372 204.078 575.662 236.442 575.874 246.742C576.084 257.044 592.945 262.603 602.916 288.162C612.887 313.722 598.878 384.431 598.878 384.431" stroke="#1A202C" stroke-width="6" stroke-miterlimit="10" stroke-linecap="round" stroke-linejoin="round"/>
<path d="M619.626 87.397C619.626 87.397 580.346 87.88 573.098 111.377" stroke="#1A202C" stroke-width="6" stroke-miterlimit="10" stroke-linecap="round" stroke-linejoin="round"/>
<path d="M608.018 110.661C600.139 113.772 590.009 119.673 582.833 130.662" stroke="#1A202C" stroke-width="6" stroke-miterlimit="10" stroke-linecap="round" stroke-linejoin="round"/>
<path d="M626.167 123.655C626.167 123.655 613.693 143.556 600.238 147.052" stroke="#1A202C" stroke-width="6" stroke-miterlimit="10" stroke-linecap="round" stroke-linejoin="round"/>
<path d="M631.076 143.199C631.076 143.199 628.883 161.922 621.388 173.348" stroke="#1A202C" stroke-width="6" stroke-miterlimit="10" stroke-linecap="round" stroke-linejoin="round"/>
<path d="M595.771 70.4953C595.771 70.4953 570.786 61.346 555.557 72.6077" stroke="#1A202C" stroke-width="6" stroke-miterlimit="10" stroke-linecap="round" stroke-linejoin="round"/>
<path d="M468.168 28.3458C468.168 28.3458 454.842 37.6363 454.528 57.6096" stroke="#1A202C" stroke-width="6" stroke-miterlimit="10" stroke-linecap="round" stroke-linejoin="round"/>
<path d="M454.878 74.6716L455.174 89.1579" stroke="#1A202C" stroke-width="6" stroke-miterlimit="10" stroke-linecap="round" stroke-linejoin="round"/>
<path d="M443.802 25.3028C443.802 25.3028 412.689 47.1955 429.806 80.9817" stroke="#1A202C" stroke-width="6" stroke-miterlimit="10" stroke-linecap="round" stroke-linejoin="round"/>
<path d="M485.402 27.9923C485.402 27.9923 493.845 47.1422 489.327 62.3712" stroke="#1A202C" stroke-width="6" stroke-miterlimit="10" stroke-linecap="round" stroke-linejoin="round"/>
<path d="M552.334 48.8954C552.334 48.8954 525.933 49.2762 519.484 64.5444" stroke="#1A202C" stroke-width="6" stroke-miterlimit="10" stroke-linecap="round" stroke-linejoin="round"/>
<path d="M516.03 29.6185L508.45 44.7491" stroke="#1A202C" stroke-width="6" stroke-miterlimit="10" stroke-linecap="round" stroke-linejoin="round"/>
<path d="M413.601 91.6195C413.601 91.6195 399.776 77.0891 374.962 76.3098" stroke="#1A202C" stroke-width="6" stroke-miterlimit="10" stroke-linecap="round" stroke-linejoin="round"/>
<path d="M358.544 76.6458C358.544 76.6458 335.09 79.3811 325.684 91.8118" stroke="#1A202C" stroke-width="6" stroke-miterlimit="10" stroke-linecap="round" stroke-linejoin="round"/>
<path d="M359.912 52.8399C359.912 52.8399 390.158 47.7652 405.364 66.8836" stroke="#1A202C" stroke-width="6" stroke-miterlimit="10" stroke-linecap="round" stroke-linejoin="round"/>
<path d="M407.459 27.658C407.459 27.658 402.558 39.9966 403.022 46.9113" stroke="#1A202C" stroke-width="6" stroke-miterlimit="10" stroke-linecap="round" stroke-linejoin="round"/>
<path d="M386.408 37.6703L374.131 35.7484" stroke="#1A202C" stroke-width="6" stroke-miterlimit="10" stroke-linecap="round" stroke-linejoin="round"/>
<path d="M393.837 111.992L395.868 95.9548" stroke="#1A202C" stroke-width="6" stroke-miterlimit="10" stroke-linecap="round" stroke-linejoin="round"/>
<path d="M315.34 105.604L309.065 113.73" stroke="#1A202C" stroke-width="6" stroke-miterlimit="10" stroke-linecap="round" stroke-linejoin="round"/>
<path d="M580.307 532.191C574.091 570.065 563.233 643.421 563.37 695.322" stroke="#1A202C" stroke-width="6" stroke-miterlimit="10" stroke-linecap="round" stroke-linejoin="round"/>
<path d="M306.594 561.963C309.143 586.386 311.607 630.517 306.631 692.211" stroke="#1A202C" stroke-width="6" stroke-miterlimit="10" stroke-linecap="round" stroke-linejoin="round"/>
<path d="M565.813 644.349C565.813 644.349 572.272 682.78 610.115 706.48" stroke="#1A202C" stroke-width="6" stroke-miterlimit="10" stroke-linecap="round" stroke-linejoin="round"/>
<path d="M308.809 656.401C308.809 656.401 302.35 689.354 264.507 713.054" stroke="#1A202C" stroke-width="6" stroke-miterlimit="10" stroke-linecap="round" stroke-linejoin="round"/>
<path d="M617.712 701.524L817.13 802.414" stroke="#1A202C" stroke-width="6" stroke-miterlimit="10" stroke-linecap="round" stroke-linejoin="round"/>
<path d="M261.057 705.988C261.057 705.988 293.575 793.855 405.876 804.351C518.176 814.846 615.731 701.866 615.731 701.866" stroke="#1A202C" stroke-width="6" stroke-miterlimit="10" stroke-linecap="round" stroke-linejoin="round"/>
<path d="M259.433 705.906C259.433 705.906 90.5541 785.318 51.2577 804.515" stroke="#1A202C" stroke-width="6" stroke-miterlimit="10" stroke-linecap="round" stroke-linejoin="round"/>
<path d="M658.215 377.847C658.215 377.847 666.572 345.686 658.255 337.912C649.937 330.138 642.458 342.315 635.779 351.684C629.101 361.053 617.005 374.153 616.043 377.74C615.08 381.325 620.064 391.511 618.925 398.834C617.787 406.157 614.118 415.68 619.904 415.131C625.689 414.584 645.477 405.804 647.14 392.674" stroke="#1A202C" stroke-width="4.5" stroke-miterlimit="10" stroke-linecap="round" stroke-linejoin="round"/>
<path d="M630.95 358.029C630.95 358.029 640.733 362.962 640.818 377.56" stroke="#1A202C" stroke-width="4.5" stroke-miterlimit="10" stroke-linecap="round" stroke-linejoin="round"/>
<path d="M246.793 344.951C246.793 344.951 255.501 320.94 266.959 333.91" stroke="#1A202C" stroke-width="4.5" stroke-miterlimit="10" stroke-linecap="round" stroke-linejoin="round"/>
<path d="M266.659 340.573L256.662 360.207" stroke="#1A202C" stroke-width="4.5" stroke-miterlimit="10" stroke-linecap="round" stroke-linejoin="round"/>
<path d="M267.371 409.257C267.371 409.257 259.885 408.555 257.404 396.369" stroke="#1A202C" stroke-width="4.5" stroke-miterlimit="10" stroke-linecap="round" stroke-linejoin="round"/>
<path d="M458.719 335.374C458.719 335.374 465.54 331.637 472.861 327.462C480.183 323.286 500.874 311.43 527.703 331.973" stroke="#1A202C" stroke-width="4.5" stroke-miterlimit="10" stroke-linecap="round" stroke-linejoin="round"/>
<path d="M533.716 326.832C533.716 326.832 504.629 306.096 463.575 322.193" stroke="#1A202C" stroke-width="3" stroke-miterlimit="10" stroke-linecap="round" stroke-linejoin="round"/>
<path d="M379.541 333.803C379.541 333.803 373.263 331.355 366.748 327.732C360.234 324.108 333.127 300.853 308.845 330.958" stroke="#1A202C" stroke-width="4.5" stroke-miterlimit="10" stroke-linecap="round" stroke-linejoin="round"/>
<path d="M375.91 324.189C375.91 324.189 362.33 311.159 340.219 311.289C318.107 311.419 307.341 320.325 307.341 320.325" stroke="#1A202C" stroke-width="3" stroke-miterlimit="10" stroke-linecap="round" stroke-linejoin="round"/>
<path d="M389.752 310.781C389.752 310.781 390.597 336.244 386.314 363.043" stroke="#1A202C" stroke-width="4.5" stroke-miterlimit="10" stroke-linecap="round" stroke-linejoin="round"/>
<path d="M421.355 431.439C421.355 431.439 428.777 426.35 436.957 427.684" stroke="#1A202C" stroke-width="4.5" stroke-miterlimit="10" stroke-linecap="round" stroke-linejoin="round"/>
<path d="M444.975 430.223C444.975 430.223 466.156 424.51 451.997 404.189C451.997 404.189 463.96 412.657 483.279 422.332C502.598 432.007 514.19 438.852 518.054 448.313" stroke="#1A202C" stroke-width="4.5" stroke-miterlimit="10" stroke-linecap="round" stroke-linejoin="round"/>
<path d="M413.312 437.793C413.312 437.793 406.323 440.931 400.005 438.065C393.292 435.021 388.872 428.886 383.496 428.496" stroke="#1A202C" stroke-width="4.5" stroke-miterlimit="10" stroke-linecap="round" stroke-linejoin="round"/>
<path d="M494.227 473.382C494.227 473.382 486.276 472.281 461.582 475.058C424.463 479.232 424.372 480.961 400.493 478.665C376.615 476.369 352.884 466.751 340.963 471.718C340.963 471.718 352.406 487.047 361.248 495.116C372.302 505.205 386.04 513.952 414.868 513.674C441.754 513.414 472.976 503.971 494.227 473.382Z" stroke="#1A202C" stroke-width="4.5" stroke-miterlimit="10" stroke-linecap="round" stroke-linejoin="round"/>
<path d="M479.248 475.303L478.481 491.526" stroke="#1A202C" stroke-width="4" stroke-miterlimit="10" stroke-linecap="round" stroke-linejoin="round"/>
<path d="M355.946 473.023L355.681 488.701" stroke="#1A202C" stroke-width="4" stroke-miterlimit="10" stroke-linecap="round" stroke-linejoin="round"/>
<path d="M478.288 489.321C478.288 489.321 421.565 514.274 357.383 489.804" stroke="#1A202C" stroke-width="4" stroke-miterlimit="10" stroke-linecap="round" stroke-linejoin="round"/>
<path d="M428.137 462.968C428.137 462.968 413.746 465.304 410.312 465.373C406.878 465.444 392.866 462.726 392.866 462.726" stroke="#1A202C" stroke-width="4.5" stroke-miterlimit="10" stroke-linecap="round" stroke-linejoin="round"/>
<path d="M440.932 541.76C440.932 541.76 414.425 553.194 391.257 541.247" stroke="#1A202C" stroke-width="4.5" stroke-miterlimit="10" stroke-linecap="round" stroke-linejoin="round"/>
<path d="M375.483 431.648C375.483 431.648 357.16 428.032 366.963 403.569C366.963 403.569 350.657 416.552 341.624 423.314C332.591 430.076 318.028 440.382 316.615 448.109" stroke="#1A202C" stroke-width="4.5" stroke-miterlimit="10" stroke-linecap="round" stroke-linejoin="round"/>
<path d="M433.374 314.423C433.374 314.423 434.839 303.873 438.735 299.069C442.632 294.266 484.924 285.67 508.523 288.192C532.122 290.714 551.795 311.995 551.795 311.995C551.795 311.995 532.028 306.603 511.178 304.884C490.329 303.164 474.099 306.288 463.898 308.643C453.697 311 434.687 316.972 433.374 314.423Z" fill="#1A202C"/>
<path d="M392.579 315.151C392.579 315.151 393.896 306.485 390.586 301.666C387.275 296.846 345.05 283.679 319.08 289.364C298.997 293.761 289.564 312.54 289.564 312.54C289.564 312.54 306.688 307.233 324.703 305.602C342.719 303.972 356.694 307.165 365.473 309.563C374.253 311.963 391.417 317.695 392.579 315.151Z" fill="#1A202C"/>
<path d="M597.406 404.813L595.515 403.715" stroke="#1A202C" stroke-width="4.5" stroke-miterlimit="10" stroke-linecap="round" stroke-linejoin="round"/>
<path d="M608.553 411.285L603.801 408.526" stroke="#1A202C" stroke-width="4.5" stroke-miterlimit="10" stroke-linecap="round" stroke-linejoin="round"/>
<path d="M592.749 423.323L589.33 421.341" stroke="#1A202C" stroke-width="4.5" stroke-miterlimit="10" stroke-linecap="round" stroke-linejoin="round"/>
<path d="M606.494 431.294L599.438 427.203" stroke="#1A202C" stroke-width="4.5" stroke-miterlimit="10" stroke-linecap="round" stroke-linejoin="round"/>
<path d="M587.909 440.978L582.362 437.587" stroke="#1A202C" stroke-width="4.5" stroke-miterlimit="10" stroke-linecap="round" stroke-linejoin="round"/>
<path d="M604.104 450.881L594.851 445.223" stroke="#1A202C" stroke-width="4.5" stroke-miterlimit="10" stroke-linecap="round" stroke-linejoin="round"/>
<path d="M582.362 460.445L574.986 454.805" stroke="#1A202C" stroke-width="4.5" stroke-miterlimit="10" stroke-linecap="round" stroke-linejoin="round"/>
<path d="M600.833 474.566L589.558 465.946" stroke="#1A202C" stroke-width="4.5" stroke-miterlimit="10" stroke-linecap="round" stroke-linejoin="round"/>
<path d="M573.418 479.259L563.68 468.885" stroke="#1A202C" stroke-width="4.5" stroke-miterlimit="10" stroke-linecap="round" stroke-linejoin="round"/>
<path d="M593.641 500.799L581.368 487.726" stroke="#1A202C" stroke-width="4.5" stroke-miterlimit="10" stroke-linecap="round" stroke-linejoin="round"/>
<path d="M562.309 499.829L550.49 485.259" stroke="#1A202C" stroke-width="4.5" stroke-miterlimit="10" stroke-linecap="round" stroke-linejoin="round"/>
<path d="M582.869 525.173L568.864 507.91" stroke="#1A202C" stroke-width="4.5" stroke-miterlimit="10" stroke-linecap="round" stroke-linejoin="round"/>
<path d="M546.595 516.377L536.298 501.77" stroke="#1A202C" stroke-width="4.5" stroke-miterlimit="10" stroke-linecap="round" stroke-linejoin="round"/>
<path d="M568.864 548.97L553.9 527.743" stroke="#1A202C" stroke-width="4.5" stroke-miterlimit="10" stroke-linecap="round" stroke-linejoin="round"/>
<path d="M533.121 536.474L523.635 521.09" stroke="#1A202C" stroke-width="4.5" stroke-miterlimit="10" stroke-linecap="round" stroke-linejoin="round"/>
<path d="M551.896 569.607L539.09 547.707" stroke="#1A202C" stroke-width="4.5" stroke-miterlimit="10" stroke-linecap="round" stroke-linejoin="round"/>
<path d="M519.018 556.736L510.608 540.181" stroke="#1A202C" stroke-width="4.5" stroke-miterlimit="10" stroke-linecap="round" stroke-linejoin="round"/>
<path d="M535.217 588.627L523.599 565.756" stroke="#1A202C" stroke-width="4.5" stroke-miterlimit="10" stroke-linecap="round" stroke-linejoin="round"/>
<path d="M503.588 575.6L496.441 561.297" stroke="#1A202C" stroke-width="4.5" stroke-miterlimit="10" stroke-linecap="round" stroke-linejoin="round"/>
<path d="M518.158 604.758L508.2 584.831" stroke="#1A202C" stroke-width="4.5" stroke-miterlimit="10" stroke-linecap="round" stroke-linejoin="round"/>
<path d="M485.495 587.434L480.18 574.512" stroke="#1A202C" stroke-width="4.5" stroke-miterlimit="10" stroke-linecap="round" stroke-linejoin="round"/>
<path d="M498.482 619.009L489.816 597.94" stroke="#1A202C" stroke-width="4.5" stroke-miterlimit="10" stroke-linecap="round" stroke-linejoin="round"/>
<path d="M464.635 596.398L460.313 579.428" stroke="#1A202C" stroke-width="4.5" stroke-miterlimit="10" stroke-linecap="round" stroke-linejoin="round"/>
<path d="M473.856 632.611L467.71 608.474" stroke="#1A202C" stroke-width="4.5" stroke-miterlimit="10" stroke-linecap="round" stroke-linejoin="round"/>
<path d="M441.743 603.141L437.236 581.516" stroke="#1A202C" stroke-width="4.5" stroke-miterlimit="10" stroke-linecap="round" stroke-linejoin="round"/>
<path d="M448.458 640.002L443.675 615.7" stroke="#1A202C" stroke-width="4.5" stroke-miterlimit="10" stroke-linecap="round" stroke-linejoin="round"/>
<path d="M417.868 608.257L417.271 588.169" stroke="#1A202C" stroke-width="4.5" stroke-miterlimit="10" stroke-linecap="round" stroke-linejoin="round"/>
<path d="M417.797 576.185L417.343 565.482" stroke="#1A202C" stroke-width="4.5" stroke-miterlimit="10" stroke-linecap="round" stroke-linejoin="round"/>
<path d="M436.078 574.435L435.502 571.567" stroke="#1A202C" stroke-width="4.5" stroke-miterlimit="10" stroke-linecap="round" stroke-linejoin="round"/>
<path d="M419.311 644.302L418.882 620.261" stroke="#1A202C" stroke-width="4.5" stroke-miterlimit="10" stroke-linecap="round" stroke-linejoin="round"/>
<path d="M397.31 603.464L398.276 583.017" stroke="#1A202C" stroke-width="4.5" stroke-miterlimit="10" stroke-linecap="round" stroke-linejoin="round"/>
<path d="M398.826 575.158L399.051 571.551" stroke="#1A202C" stroke-width="4.5" stroke-miterlimit="10" stroke-linecap="round" stroke-linejoin="round"/>
<path d="M395.7 640.974L396.828 617.308" stroke="#1A202C" stroke-width="4.5" stroke-miterlimit="10" stroke-linecap="round" stroke-linejoin="round"/>
<path d="M377.67 597.94L380.737 577.947" stroke="#1A202C" stroke-width="4.5" stroke-miterlimit="10" stroke-linecap="round" stroke-linejoin="round"/>
<path d="M372.213 633.513L375.531 611.883" stroke="#1A202C" stroke-width="4.5" stroke-miterlimit="10" stroke-linecap="round" stroke-linejoin="round"/>
<path d="M358.332 589.615L362.604 573.165" stroke="#1A202C" stroke-width="4.5" stroke-miterlimit="10" stroke-linecap="round" stroke-linejoin="round"/>
<path d="M350.664 619.141L355.61 600.095" stroke="#1A202C" stroke-width="4.5" stroke-miterlimit="10" stroke-linecap="round" stroke-linejoin="round"/>
<path d="M342.901 573.165L347.721 562.037" stroke="#1A202C" stroke-width="4.5" stroke-miterlimit="10" stroke-linecap="round" stroke-linejoin="round"/>
<path d="M331.885 598.593L338.325 583.727" stroke="#1A202C" stroke-width="4.5" stroke-miterlimit="10" stroke-linecap="round" stroke-linejoin="round"/>
<path d="M329.378 551.144L334.567 540.89" stroke="#1A202C" stroke-width="4.5" stroke-miterlimit="10" stroke-linecap="round" stroke-linejoin="round"/>
<path d="M316.615 576.362L324.172 561.43" stroke="#1A202C" stroke-width="4.5" stroke-miterlimit="10" stroke-linecap="round" stroke-linejoin="round"/>
<path d="M317.343 531.1L324.172 520.815" stroke="#1A202C" stroke-width="4.5" stroke-miterlimit="10" stroke-linecap="round" stroke-linejoin="round"/>
<path d="M302.929 552.81L311.32 540.172" stroke="#1A202C" stroke-width="4.5" stroke-miterlimit="10" stroke-linecap="round" stroke-linejoin="round"/>
<path d="M305.082 514.173L311.32 506.585" stroke="#1A202C" stroke-width="4.5" stroke-miterlimit="10" stroke-linecap="round" stroke-linejoin="round"/>
<path d="M290.583 531.809L298.535 522.136" stroke="#1A202C" stroke-width="4.5" stroke-miterlimit="10" stroke-linecap="round" stroke-linejoin="round"/>
<path d="M295.883 494.814L300.22 490.226" stroke="#1A202C" stroke-width="4.5" stroke-miterlimit="10" stroke-linecap="round" stroke-linejoin="round"/>
<path d="M281.128 510.425L288.801 502.308" stroke="#1A202C" stroke-width="4.5" stroke-miterlimit="10" stroke-linecap="round" stroke-linejoin="round"/>
<path d="M284.963 477.964L287.289 475.839" stroke="#1A202C" stroke-width="4.5" stroke-miterlimit="10" stroke-linecap="round" stroke-linejoin="round"/>
<path d="M273.589 488.358L278.51 483.862" stroke="#1A202C" stroke-width="4.5" stroke-miterlimit="10" stroke-linecap="round" stroke-linejoin="round"/>
<path d="M269.626 467.828L277.967 461.002" stroke="#1A202C" stroke-width="4.5" stroke-miterlimit="10" stroke-linecap="round" stroke-linejoin="round"/>
<path d="M268.041 448.108L272.696 444.792" stroke="#1A202C" stroke-width="4.5" stroke-miterlimit="10" stroke-linecap="round" stroke-linejoin="round"/>
<path d="M419.399 446.509L424.297 454.996" stroke="#1A202C" stroke-width="4.5" stroke-miterlimit="10" stroke-linecap="round" stroke-linejoin="round"/>
<path d="M430.489 442.846L438.264 455.569" stroke="#1A202C" stroke-width="4.5" stroke-miterlimit="10" stroke-linecap="round" stroke-linejoin="round"/>
<path d="M443.952 439.78L453.299 455.904" stroke="#1A202C" stroke-width="4.5" stroke-miterlimit="10" stroke-linecap="round" stroke-linejoin="round"/>
<path d="M458.965 439.042L470.07 457.064" stroke="#1A202C" stroke-width="4.5" stroke-miterlimit="10" stroke-linecap="round" stroke-linejoin="round"/>
<path d="M475.029 439.786L487.555 461.643" stroke="#1A202C" stroke-width="4.5" stroke-miterlimit="10" stroke-linecap="round" stroke-linejoin="round"/>
<path d="M493.685 446.489L507.036 469.403" stroke="#1A202C" stroke-width="4.5" stroke-miterlimit="10" stroke-linecap="round" stroke-linejoin="round"/>
<path d="M401.157 446.883L396.612 455.564" stroke="#1A202C" stroke-width="4.5" stroke-miterlimit="10" stroke-linecap="round" stroke-linejoin="round"/>
<path d="M389.927 443.677L382.679 456.708" stroke="#1A202C" stroke-width="4.5" stroke-miterlimit="10" stroke-linecap="round" stroke-linejoin="round"/>
<path d="M377.61 441.139L368.931 457.634" stroke="#1A202C" stroke-width="4.5" stroke-miterlimit="10" stroke-linecap="round" stroke-linejoin="round"/>
<path d="M365.1 440.966L354.743 459.428" stroke="#1A202C" stroke-width="4.5" stroke-miterlimit="10" stroke-linecap="round" stroke-linejoin="round"/>
<path d="M350.592 441.532L340.073 462.52" stroke="#1A202C" stroke-width="4.5" stroke-miterlimit="10" stroke-linecap="round" stroke-linejoin="round"/>
<path d="M333.985 448.313L323.051 470.061" stroke="#1A202C" stroke-width="4.5" stroke-miterlimit="10" stroke-linecap="round" stroke-linejoin="round"/>
<path d="M348.537 319.433C348.537 319.433 353.427 327.968 349.241 335.583C345.055 343.199 332.095 343.09 327.345 335.962C322.597 328.831 326.499 319.108 331.006 318.378C335.516 317.65 343.224 317.083 348.537 319.433Z" fill="#1A202C"/>
<path d="M504.431 319.743C504.431 319.743 509.689 323.928 508.616 332.944C507.543 341.959 496.381 348.077 485.864 342.818C476.332 338.053 479.96 324.68 479.96 324.68C479.96 324.68 497.347 318.777 504.431 319.743" fill="#1A202C"/>
</g>
</g>
<defs>
<linearGradient id="paint0_linear" x1="446" y1="40" x2="446" y2="922" gradientUnits="userSpaceOnUse">
<stop stop-color="white" stop-opacity="0.85"/>
<stop offset="1" stop-color="white"/>
</linearGradient>
<clipPath id="clip0">
<rect width="895" height="927" fill="white"/>
</clipPath>
<clipPath id="clip1">
<rect x="-94" y="-79" width="1151" height="1151" fill="white"/>
</clipPath>
</defs>
</svg>
